<svg width="638" height="237" viewBox="0 0 638 237" fill="none" xmlns="http://www.w3.org/2000/svg">
<path d="M4.26054 122.303C3.00339 122.303 2.18994 121.49 1.82019 119.863C1.45044 119.049 1.26556 117.57 1.26556 115.425C1.26556 108.991 1.19161 103.26 1.04371 98.231C0.821863 90.9836 0.710938 83.3293 0.710938 75.2683V50.8635C0.710938 50.198 1.00674 49.5693 1.59834 48.9777C2.26389 48.3121 2.92944 47.9793 3.59499 47.9793L16.3514 48.0903C18.7178 48.1642 21.8237 48.2012 25.6691 48.2012C31.2153 48.2012 35.5044 48.1642 38.5363 48.0903L42.6406 47.9793C47.0776 47.8314 50.7381 47.7575 53.6221 47.7575C58.281 47.7575 62.718 48.4231 66.9331 49.7542C71.8878 51.2333 75.9181 53.7847 79.024 57.4085C82.4996 61.328 84.2374 66.6157 84.2374 73.2716C84.2374 84.5126 81.3904 92.6475 75.6962 97.6764C70.6676 102.409 63.1617 104.776 53.1784 104.776H37.9817C38.0557 106.477 38.0926 108.289 38.0926 110.212C38.0926 110.877 38.0557 111.691 37.9817 112.652C37.9817 113.539 37.9817 114.76 37.9817 116.313C37.9817 118.753 37.4641 120.306 36.4288 120.972C35.6153 121.637 34.0993 121.97 31.8808 121.97C28.6271 121.97 26.3716 122.007 25.1144 122.081C20.0119 122.081 15.9446 122.155 12.9127 122.303H4.26054ZM43.9717 91.4642C45.5246 91.4642 46.6708 89.9852 47.4103 87.027C48.0019 85.0303 48.4456 82.0721 48.7414 78.1525C48.8893 76.0079 48.9633 73.6044 48.9633 70.942V69.7218C48.9633 68.5385 48.7784 66.7636 48.4087 64.3971C48.1129 63.0659 47.7801 62.0306 47.4103 61.291C47.0406 60.4776 46.5599 59.812 45.9683 59.2943C45.3767 58.6287 44.7112 58.2959 43.9717 58.2959C43.6019 58.2959 43.2691 58.4438 42.9733 58.7396C42.7515 59.0354 42.5296 59.4052 42.3078 59.849C41.4943 61.1801 40.7548 64.1383 40.0893 68.7234C39.8675 70.0546 39.6826 72.0514 39.5347 74.7137C39.1649 78.7812 38.98 84.2168 38.98 91.0205C38.98 91.0205 39.017 91.0575 39.091 91.1315C39.1649 91.2054 39.3128 91.2794 39.5347 91.3533L40.8658 91.4642H43.9717Z" fill="#111C1E"/>
<path d="M135.914 125.076C127.114 125.076 120.162 124.374 115.06 122.969C107.961 121.12 102.562 117.681 98.8648 112.652C94.5757 106.662 92.4311 98.342 92.4311 87.6926C92.4311 80.0753 93.2816 73.6044 94.9824 68.2797C96.6833 62.955 99.3085 58.5917 102.858 55.1899C106.408 51.788 110.956 49.3105 116.502 47.7575C122.122 46.1305 128.962 45.317 137.023 45.317C143.309 45.317 149.225 46.2784 154.771 48.2012C161.574 50.6417 166.862 54.3764 170.633 59.4052C175.292 65.3955 177.622 73.2716 177.622 83.0335C177.622 94.4224 175.921 103.297 172.519 109.657C169.117 115.499 164.2 119.641 157.766 122.081C152.515 124.078 145.231 125.076 135.914 125.076ZM135.026 114.316C135.914 114.316 136.616 113.761 137.134 112.652C138.243 110.286 139.02 106.551 139.463 101.448C139.907 96.7889 140.129 92.3887 140.129 88.2472V81.0367C140.129 77.7828 139.907 73.8262 139.463 69.1671C139.02 64.1383 138.243 60.3296 137.134 57.7413C136.542 56.484 135.84 55.8554 135.026 55.8554C133.399 55.8554 132.216 57.4085 131.477 60.5145C130.737 64.8039 130.367 68.6864 130.367 72.1623C130.146 75.1204 130.035 79.7426 130.035 86.0286C130.035 90.244 130.146 93.7198 130.367 96.4561C130.367 99.932 130.737 103.962 131.477 108.548C132.216 112.393 133.399 114.316 135.026 114.316Z" fill="#111C1E"/>
<path d="M201.956 122.747C201.216 122.747 200.625 122.673 200.181 122.525H195.189L190.198 121.305L189.754 120.417C189.68 120.417 189.643 120.01 189.643 119.197C189.643 118.162 189.606 117.311 189.532 116.646L189.421 111.543C189.347 110.433 189.31 108.769 189.31 106.551L189.088 98.0092C189.088 96.1603 189.162 93.6089 189.31 90.3549L189.421 86.5833C189.569 84.2168 189.643 80.3342 189.643 74.9355V72.7169C189.495 72.4951 189.421 72.0883 189.421 71.4967L189.31 70.7202C189.31 68.8713 189.421 66.9485 189.643 64.9518C189.791 62.4373 189.865 60.1448 189.865 58.074L189.754 54.968C189.68 54.1545 189.643 53.1931 189.643 52.0838C189.643 52.0098 189.569 51.8989 189.421 51.751C189.347 51.6031 189.31 51.4552 189.31 51.3073C189.31 50.5677 189.606 49.9391 190.198 49.4214C190.789 48.9038 191.529 48.534 192.416 48.3121C193.599 47.9424 195.115 47.7575 196.964 47.7575H224.363C224.436 47.7575 224.547 47.8314 224.695 47.9793C224.843 48.1273 224.991 48.2382 225.139 48.3121C225.731 48.8298 226.47 49.8282 227.357 51.3073C227.579 51.751 227.801 52.2687 228.023 52.8603C228.319 53.378 228.689 54.2285 229.132 55.4117C229.65 56.595 230.352 58.4068 231.24 60.8473L232.571 64.2862C233.163 65.3955 233.828 66.9855 234.568 69.0562C234.789 69.6479 235.011 70.2395 235.233 70.8311C235.529 71.4227 235.788 72.0144 236.01 72.606C236.158 73.1237 236.305 73.5304 236.453 73.8262C236.675 74.0481 236.786 74.196 236.786 74.27C237.304 75.4532 237.858 76.0449 238.45 76.0449C239.189 76.0449 239.781 75.4532 240.225 74.27C240.299 74.196 240.373 74.0481 240.447 73.8262C240.521 73.5304 240.705 73.0867 241.001 72.4951L242.665 68.8344L247.102 59.4052L248.988 55.4117C249.21 54.8201 249.358 54.3394 249.432 53.9696C249.579 53.5259 249.727 53.2301 249.875 53.0822C250.171 52.4166 250.874 51.2703 251.983 49.6433C252.353 49.0517 252.685 48.6079 252.981 48.3121C253.203 48.2382 253.351 48.1273 253.425 47.9793C253.499 47.8314 253.61 47.7575 253.758 47.7575H287.812C287.96 47.7575 288.144 48.3121 288.366 49.4214L288.699 60.2927C288.847 63.3987 288.921 68.2797 288.921 74.9355V81.3695C288.921 83.884 288.81 86.6942 288.588 89.8003C288.366 92.9064 288.218 94.9031 288.144 95.7906L287.923 98.0092V101.892C287.996 102.927 288.033 104.48 288.033 106.551C288.033 108.769 288.07 110.433 288.144 111.543C288.144 113.687 288.218 115.166 288.366 115.98V120.417L288.033 121.305L283.042 122.525H278.05C277.533 122.673 276.904 122.747 276.164 122.747C274.833 122.747 272.985 122.673 270.618 122.525L267.845 122.414C267.327 122.34 266.736 122.266 266.07 122.192C265.405 122.118 264.591 122.081 263.63 122.081L259.304 121.748C259.156 121.748 259.045 121.785 258.971 121.859H258.084C257.714 121.859 257.492 121.453 257.418 120.639C256.974 119.16 256.753 116.646 256.753 113.096C256.753 110.729 256.716 108.88 256.642 107.549L256.531 101.559C256.457 100.228 256.42 98.305 256.42 95.7906C256.42 95.1989 256.161 94.9031 255.643 94.9031C255.348 94.9031 255.052 95.2729 254.756 96.0124L253.536 99.0076L252.537 101.781C252.39 102.225 252.242 102.668 252.094 103.112C251.946 103.556 251.761 103.962 251.539 104.332L250.984 105.663C250.319 107.142 249.469 108.806 248.433 110.655C247.324 112.652 245.956 114.242 244.329 115.425C243.442 115.943 242.665 116.202 242 116.202H240.336C239.448 116.202 238.709 116.128 238.117 115.98H233.458C230.5 111.247 227.727 106.07 225.139 100.45L223.475 96.3452C223.031 95.3838 222.736 94.9031 222.588 94.9031C222.07 94.9031 221.811 95.1989 221.811 95.7906V101.004C221.811 106.181 221.737 109.99 221.589 112.43C221.441 116.276 221.183 118.938 220.813 120.417C220.739 121.379 220.517 121.859 220.147 121.859H219.371L218.816 121.748C216.302 121.896 214.305 122.044 212.826 122.192C211.939 122.266 210.386 122.377 208.167 122.525C205.949 122.673 203.878 122.747 201.956 122.747Z" fill="#111C1E"/>
<path d="M343.103 122.747C342.364 122.747 341.772 122.673 341.329 122.525H336.337L331.345 121.305L330.902 120.417C330.828 120.417 330.791 120.01 330.791 119.197C330.791 118.162 330.754 117.311 330.68 116.646L330.569 111.543C330.495 110.433 330.458 108.769 330.458 106.551L330.236 98.0092C330.236 96.1603 330.31 93.6089 330.458 90.3549L330.569 86.5833C330.717 84.2168 330.791 80.3342 330.791 74.9355V72.7169C330.643 72.4951 330.569 72.0883 330.569 71.4967L330.458 70.7202C330.458 68.8713 330.569 66.9485 330.791 64.9518C330.939 62.4373 331.012 60.1448 331.012 58.074L330.902 54.968C330.828 54.1545 330.791 53.1931 330.791 52.0838C330.791 52.0098 330.717 51.8989 330.569 51.751C330.495 51.6031 330.458 51.4552 330.458 51.3073C330.458 50.5677 330.754 49.9391 331.345 49.4214C331.937 48.9038 332.676 48.534 333.564 48.3121C334.747 47.9424 336.263 47.7575 338.112 47.7575H365.51C365.584 47.7575 365.695 47.8314 365.843 47.9793C365.991 48.1273 366.139 48.2382 366.287 48.3121C366.878 48.8298 367.618 49.8282 368.505 51.3073C368.727 51.751 368.949 52.2687 369.171 52.8603C369.466 53.378 369.836 54.2285 370.28 55.4117C370.798 56.595 371.5 58.4068 372.388 60.8473L373.719 64.2862C374.31 65.3955 374.976 66.9855 375.715 69.0562C375.937 69.6479 376.159 70.2395 376.381 70.8311C376.677 71.4227 376.935 72.0144 377.157 72.606C377.305 73.1237 377.453 73.5304 377.601 73.8262C377.823 74.0481 377.934 74.196 377.934 74.27C378.451 75.4532 379.006 76.0449 379.598 76.0449C380.337 76.0449 380.929 75.4532 381.372 74.27C381.446 74.196 381.52 74.0481 381.594 73.8262C381.668 73.5304 381.853 73.0867 382.149 72.4951L383.813 68.8344L388.25 59.4052L390.135 55.4117C390.357 54.8201 390.505 54.3394 390.579 53.9696C390.727 53.5259 390.875 53.2301 391.023 53.0822C391.319 52.4166 392.021 51.2703 393.13 49.6433C393.5 49.0517 393.833 48.6079 394.129 48.3121C394.351 48.2382 394.499 48.1273 394.573 47.9793C394.646 47.8314 394.757 47.7575 394.905 47.7575H428.959C429.107 47.7575 429.292 48.3121 429.514 49.4214L429.847 60.2927C429.995 63.3987 430.069 68.2797 430.069 74.9355V81.3695C430.069 83.884 429.958 86.6942 429.736 89.8003C429.514 92.9064 429.366 94.9031 429.292 95.7906L429.07 98.0092V101.892C429.144 102.927 429.181 104.48 429.181 106.551C429.181 108.769 429.218 110.433 429.292 111.543C429.292 113.687 429.366 115.166 429.514 115.98V120.417L429.181 121.305L424.189 122.525H419.198C418.68 122.673 418.052 122.747 417.312 122.747C415.981 122.747 414.132 122.673 411.766 122.525L408.993 122.414C408.475 122.34 407.884 122.266 407.218 122.192C406.552 122.118 405.739 122.081 404.778 122.081L400.452 121.748C400.304 121.748 400.193 121.785 400.119 121.859H399.231C398.862 121.859 398.64 121.453 398.566 120.639C398.122 119.16 397.9 116.646 397.9 113.096C397.9 110.729 397.863 108.88 397.789 107.549L397.678 101.559C397.604 100.228 397.567 98.305 397.567 95.7906C397.567 95.1989 397.309 94.9031 396.791 94.9031C396.495 94.9031 396.199 95.2729 395.904 96.0124L394.683 99.0076L393.685 101.781C393.537 102.225 393.389 102.668 393.241 103.112C393.094 103.556 392.909 103.962 392.687 104.332L392.132 105.663C391.467 107.142 390.616 108.806 389.581 110.655C388.472 112.652 387.104 114.242 385.477 115.425C384.589 115.943 383.813 116.202 383.147 116.202H381.483C380.596 116.202 379.856 116.128 379.265 115.98H374.606C371.648 111.247 368.875 106.07 366.287 100.45L364.623 96.3452C364.179 95.3838 363.883 94.9031 363.735 94.9031C363.218 94.9031 362.959 95.1989 362.959 95.7906V101.004C362.959 106.181 362.885 109.99 362.737 112.43C362.589 116.276 362.33 118.938 361.961 120.417C361.887 121.379 361.665 121.859 361.295 121.859H360.519L359.964 121.748C357.45 121.896 355.453 122.044 353.974 122.192C353.087 122.266 351.534 122.377 349.315 122.525C347.097 122.673 345.026 122.747 343.103 122.747Z" fill="#111C1E"/>
<path d="M484.937 125.076C476.137 125.076 469.186 124.374 464.083 122.969C456.984 121.12 451.586 117.681 447.888 112.652C443.599 106.662 441.455 98.342 441.455 87.6926C441.455 80.0753 442.305 73.6044 444.006 68.2797C445.707 62.955 448.332 58.5917 451.882 55.1899C455.431 51.788 459.979 49.3105 465.525 47.7575C471.146 46.1305 477.986 45.317 486.047 45.317C492.332 45.317 498.248 46.2784 503.795 48.2012C510.598 50.6417 515.885 54.3764 519.657 59.4052C524.316 65.3955 526.645 73.2716 526.645 83.0335C526.645 94.4224 524.944 103.297 521.543 109.657C518.141 115.499 513.223 119.641 506.79 122.081C501.539 124.078 494.255 125.076 484.937 125.076ZM484.05 114.316C484.937 114.316 485.64 113.761 486.158 112.652C487.267 110.286 488.043 106.551 488.487 101.448C488.931 96.7889 489.152 92.3887 489.152 88.2472V81.0367C489.152 77.7828 488.931 73.8262 488.487 69.1671C488.043 64.1383 487.267 60.3296 486.158 57.7413C485.566 56.484 484.863 55.8554 484.05 55.8554C482.423 55.8554 481.24 57.4085 480.5 60.5145C479.761 64.8039 479.391 68.6864 479.391 72.1623C479.169 75.1204 479.058 79.7426 479.058 86.0286C479.058 90.244 479.169 93.7198 479.391 96.4561C479.391 99.932 479.761 103.962 480.5 108.548C481.24 112.393 482.423 114.316 484.05 114.316Z" fill="#111C1E"/>
<path d="M550.979 122.747C550.24 122.747 549.648 122.673 549.204 122.525H544.213L539.221 121.305L538.778 120.417C538.704 120.417 538.667 120.01 538.667 119.197C538.667 118.162 538.63 117.311 538.556 116.646L538.445 111.543C538.371 110.433 538.334 108.769 538.334 106.551L538.112 98.0092C538.112 96.1603 538.186 93.6089 538.334 90.3549L538.445 86.5833C538.593 84.2168 538.667 80.3342 538.667 74.9355V72.7169C538.519 72.4951 538.445 72.0883 538.445 71.4967L538.334 70.7202C538.334 68.8713 538.445 66.9485 538.667 64.9518C538.814 62.4373 538.888 60.1448 538.888 58.074L538.778 54.968C538.704 54.1545 538.667 53.1931 538.667 52.0838C538.667 52.0098 538.593 51.8989 538.445 51.751C538.371 51.6031 538.334 51.4552 538.334 51.3073C538.334 50.5677 538.63 49.9391 539.221 49.4214C539.813 48.9038 540.552 48.534 541.44 48.3121C542.623 47.9424 544.139 47.7575 545.988 47.7575H573.386C573.46 47.7575 573.571 47.8314 573.719 47.9793C573.867 48.1273 574.015 48.2382 574.163 48.3121C574.754 48.8298 575.494 49.8282 576.381 51.3073C576.603 51.751 576.825 52.2687 577.047 52.8603C577.342 53.378 577.712 54.2285 578.156 55.4117C578.674 56.595 579.376 58.4068 580.263 60.8473L581.595 64.2862C582.186 65.3955 582.852 66.9855 583.591 69.0562C583.813 69.6479 584.035 70.2395 584.257 70.8311C584.552 71.4227 584.811 72.0144 585.033 72.606C585.181 73.1237 585.329 73.5304 585.477 73.8262C585.699 74.0481 585.81 74.196 585.81 74.27C586.327 75.4532 586.882 76.0449 587.474 76.0449C588.213 76.0449 588.805 75.4532 589.248 74.27C589.322 74.196 589.396 74.0481 589.47 73.8262C589.544 73.5304 589.729 73.0867 590.025 72.4951L591.689 68.8344L596.126 59.4052L598.011 55.4117C598.233 54.8201 598.381 54.3394 598.455 53.9696C598.603 53.5259 598.751 53.2301 598.899 53.0822C599.195 52.4166 599.897 51.2703 601.006 49.6433C601.376 49.0517 601.709 48.6079 602.005 48.3121C602.227 48.2382 602.375 48.1273 602.448 47.9793C602.522 47.8314 602.633 47.7575 602.781 47.7575H636.835C636.983 47.7575 637.168 48.3121 637.39 49.4214L637.723 60.2927C637.87 63.3987 637.944 68.2797 637.944 74.9355V81.3695C637.944 83.884 637.834 86.6942 637.612 89.8003C637.39 92.9064 637.242 94.9031 637.168 95.7906L636.946 98.0092V101.892C637.02 102.927 637.057 104.48 637.057 106.551C637.057 108.769 637.094 110.433 637.168 111.543C637.168 113.687 637.242 115.166 637.39 115.98V120.417L637.057 121.305L632.065 122.525H627.074C626.556 122.673 625.928 122.747 625.188 122.747C623.857 122.747 622.008 122.673 619.642 122.525L616.869 122.414C616.351 122.34 615.759 122.266 615.094 122.192C614.428 122.118 613.615 122.081 612.654 122.081L608.328 121.748C608.18 121.748 608.069 121.785 607.995 121.859H607.107C606.738 121.859 606.516 121.453 606.442 120.639C605.998 119.16 605.776 116.646 605.776 113.096C605.776 110.729 605.739 108.88 605.665 107.549L605.554 101.559C605.48 100.228 605.443 98.305 605.443 95.7906C605.443 95.1989 605.185 94.9031 604.667 94.9031C604.371 94.9031 604.075 95.2729 603.78 96.0124L602.559 99.0076L601.561 101.781C601.413 102.225 601.265 102.668 601.117 103.112C600.969 103.556 600.785 103.962 600.563 104.332L600.008 105.663C599.343 107.142 598.492 108.806 597.457 110.655C596.348 112.652 594.979 114.242 593.353 115.425C592.465 115.943 591.689 116.202 591.023 116.202H589.359C588.472 116.202 587.732 116.128 587.141 115.98H582.482C579.524 111.247 576.751 106.07 574.163 100.45L572.499 96.3452C572.055 95.3838 571.759 94.9031 571.611 94.9031C571.094 94.9031 570.835 95.1989 570.835 95.7906V101.004C570.835 106.181 570.761 109.99 570.613 112.43C570.465 116.276 570.206 118.938 569.836 120.417C569.763 121.379 569.541 121.859 569.171 121.859H568.395L567.84 121.748C565.326 121.896 563.329 122.044 561.85 122.192C560.963 122.266 559.41 122.377 557.191 122.525C554.973 122.673 552.902 122.747 550.979 122.747Z" fill="#111C1E"/>
<path d="M185.099 236.007C179.849 236.007 174.561 235.416 169.237 234.232C163.986 232.975 159.66 231.274 156.258 229.13C155.371 226.467 154.706 223.805 154.262 221.142C153.818 218.48 153.264 214.671 152.598 209.717V209.384C152.746 208.496 153.227 207.831 154.04 207.387C156.85 209.088 159.549 210.382 162.138 211.27C164.726 212.083 167.573 212.49 170.679 212.49H173.341L175.116 212.601C176.817 212.601 178.554 212.342 180.329 211.824C181.291 211.454 181.956 210.752 182.326 209.717L176.447 206.832C171.936 204.688 167.869 202.395 164.245 199.955C160.474 197.218 157.774 193.743 156.148 189.527C155.334 187.235 154.927 184.72 154.927 181.984C154.927 175.328 156.961 169.966 161.028 165.899C164.578 162.275 169.385 159.687 175.449 158.134C180.699 156.876 186.467 156.248 192.753 156.248C196.45 156.248 201.553 156.655 208.06 157.468C208.726 157.616 209.65 157.764 210.834 157.912L214.161 158.577C216.676 159.021 218.524 159.243 219.708 159.243C219.782 159.243 219.892 159.354 220.04 159.576C220.262 159.798 220.447 159.983 220.595 160.13C220.891 160.648 221.187 160.907 221.482 160.907H221.704L221.926 163.237C221.926 164.346 222.037 165.529 222.259 166.786C222.481 168.635 222.592 170.632 222.592 172.777C222.592 174.625 222.481 175.957 222.259 176.77C221.889 178.249 221.224 179.322 220.262 179.987L209.946 178.656H207.284C204.77 178.656 201.886 178.915 198.632 179.432L194.971 180.209C194.084 180.357 193.64 180.505 193.64 180.653C193.64 182.428 194.786 184.092 197.079 185.645C198.188 186.236 199.297 186.754 200.407 187.198C201.516 187.567 202.218 187.826 202.514 187.974C207.986 189.527 212.719 192.226 216.713 196.072C218.561 197.847 220.003 199.733 221.039 201.73C222.074 203.726 222.592 205.649 222.592 207.498C222.592 208.607 222.444 209.791 222.148 211.048C221.63 216.594 219.523 221.401 215.825 225.469C212.202 229.092 207.654 231.755 202.181 233.456C197.449 235.157 191.754 236.007 185.099 236.007Z" fill="#111C1E"/>
<path d="M257.056 234.01C252.397 234.01 248.922 233.936 246.629 233.789C243.08 233.641 239.974 233.197 237.312 232.457C237.016 232.457 236.72 232.014 236.424 231.126C236.202 230.461 236.092 229.943 236.092 229.573L233.984 189.194V186.976C233.984 186.458 234.021 185.534 234.095 184.202C234.169 182.871 234.206 181.096 234.206 178.878L234.428 173.109C234.428 171.63 234.465 170.521 234.539 169.781C234.539 167.563 234.613 165.418 234.76 163.347C234.76 162.682 234.76 162.238 234.76 162.016C234.834 161.72 234.871 161.536 234.871 161.462C235.019 161.388 235.278 161.203 235.648 160.907C236.092 160.537 236.461 160.241 236.757 160.02C237.497 159.354 238.569 159.021 239.974 159.021H248.182C248.922 159.095 250.29 159.132 252.287 159.132C254.431 159.132 256.169 159.169 257.5 159.243H268.371C270.293 159.243 271.588 159.539 272.253 160.13C273.14 160.796 273.584 162.09 273.584 164.013V165.122C273.584 165.418 273.547 165.714 273.473 166.01C273.399 166.306 273.362 166.601 273.362 166.897L273.14 168.672L273.03 170.003C273.03 170.299 273.103 170.595 273.251 170.891C273.325 171.187 273.362 171.556 273.362 172C273.362 173.997 273.325 175.439 273.251 176.326L273.14 180.875H276.024C276.986 181.096 278.021 181.207 279.13 181.207C280.609 181.355 281.645 181.429 282.236 181.429C282.902 181.577 283.9 181.651 285.231 181.651L285.342 174.108C285.416 173.442 285.453 172.481 285.453 171.224L285.564 166.675V165.788C285.564 164.605 285.601 163.569 285.675 162.682C285.749 161.72 285.897 161.055 286.119 160.685C286.562 160.094 287.08 159.798 287.672 159.798C288.115 159.65 289.151 159.576 290.778 159.576L293.772 159.465C295.917 159.465 297.692 159.391 299.097 159.243H305.42C308.378 159.243 310.522 159.206 311.853 159.132C314.441 159.132 316.216 159.095 317.178 159.021H320.173C321.947 159.021 323.131 159.243 323.722 159.687C324.166 159.983 324.462 160.426 324.61 161.018C324.757 161.536 324.831 162.312 324.831 163.347C324.831 166.232 324.757 170.114 324.61 174.995C324.314 179.728 324.166 183.537 324.166 186.421C324.166 186.865 324.24 187.235 324.388 187.53C324.388 187.826 324.425 188.085 324.499 188.307C324.573 188.455 324.61 188.566 324.61 188.64L321.837 230.793C321.837 231.163 321.578 231.681 321.06 232.346C320.394 233.012 319.803 233.345 319.285 233.345H288.781C288.559 233.345 288.337 233.16 288.115 232.79C287.893 232.42 287.709 231.94 287.561 231.348C287.487 230.978 287.376 230.498 287.228 229.906C287.154 229.24 287.08 228.427 287.006 227.466L285.786 206.943H285.009C283.013 206.943 281.423 206.906 280.24 206.832C277.43 206.684 275.692 206.611 275.026 206.611H274.139C273.473 206.611 273.14 207.239 273.14 208.496C273.14 217.667 273.103 223.509 273.03 226.023C273.03 226.615 272.919 228.02 272.697 230.239C272.549 231.94 271.92 232.975 270.811 233.345L269.147 233.456C263.379 233.752 259.349 233.936 257.056 234.01Z" fill="#111C1E"/>
<path d="M379.483 236.007C370.683 236.007 363.731 235.305 358.629 233.9C351.53 232.051 346.131 228.612 342.434 223.583C338.145 217.593 336 209.273 336 198.623C336 191.006 336.851 184.535 338.551 179.211C340.252 173.886 342.878 169.523 346.427 166.121C349.977 162.719 354.525 160.241 360.071 158.688C365.691 157.061 372.531 156.248 380.592 156.248C386.878 156.248 392.794 157.209 398.34 159.132C405.143 161.573 410.431 165.307 414.202 170.336C418.861 176.326 421.191 184.202 421.191 193.964C421.191 205.353 419.49 214.228 416.088 220.588C412.686 226.43 407.769 230.572 401.335 233.012C396.085 235.009 388.801 236.007 379.483 236.007ZM378.595 225.247C379.483 225.247 380.185 224.692 380.703 223.583C381.812 221.216 382.589 217.482 383.032 212.379C383.476 207.72 383.698 203.32 383.698 199.178V191.968C383.698 188.714 383.476 184.757 383.032 180.098C382.589 175.069 381.812 171.261 380.703 168.672C380.111 167.415 379.409 166.786 378.595 166.786C376.969 166.786 375.785 168.339 375.046 171.445C374.306 175.735 373.937 179.617 373.937 183.093C373.715 186.051 373.604 190.673 373.604 196.96C373.604 201.175 373.715 204.651 373.937 207.387C373.937 210.863 374.306 214.893 375.046 219.479C375.785 223.324 376.969 225.247 378.595 225.247Z" fill="#111C1E"/>
<path d="M436.207 233.234C434.95 233.234 434.136 232.42 433.767 230.793C433.397 229.98 433.212 228.501 433.212 226.356C433.212 219.922 433.138 214.191 432.99 209.162C432.768 201.914 432.657 194.26 432.657 186.199V161.794C432.657 161.129 432.953 160.5 433.545 159.909C434.21 159.243 434.876 158.91 435.542 158.91L448.298 159.021C450.664 159.095 453.77 159.132 457.616 159.132C463.162 159.132 467.451 159.095 470.483 159.021L474.587 158.91C479.024 158.762 482.685 158.688 485.569 158.688C490.228 158.688 494.665 159.354 498.88 160.685C503.834 162.164 507.865 164.716 510.971 168.339C514.446 172.259 516.184 177.547 516.184 184.202C516.184 195.443 513.337 203.578 507.643 208.607C502.614 213.34 495.108 215.707 485.125 215.707H469.928C470.002 217.408 470.039 219.22 470.039 221.142C470.039 221.808 470.002 222.622 469.928 223.583C469.928 224.47 469.928 225.691 469.928 227.244C469.928 229.684 469.411 231.237 468.375 231.903C467.562 232.568 466.046 232.901 463.827 232.901C460.574 232.901 458.318 232.938 457.061 233.012C451.958 233.012 447.891 233.086 444.859 233.234H436.207ZM475.918 202.395C477.471 202.395 478.617 200.916 479.357 197.958C479.948 195.961 480.392 193.003 480.688 189.083C480.836 186.939 480.91 184.535 480.91 181.873V180.653C480.91 179.469 480.725 177.695 480.355 175.328C480.059 173.997 479.727 172.961 479.357 172.222C478.987 171.408 478.506 170.743 477.915 170.225C477.323 169.56 476.658 169.227 475.918 169.227C475.548 169.227 475.216 169.375 474.92 169.671C474.698 169.966 474.476 170.336 474.254 170.78C473.441 172.111 472.701 175.069 472.036 179.654C471.814 180.985 471.629 182.982 471.481 185.645C471.111 189.712 470.927 195.148 470.927 201.951C470.927 201.951 470.964 201.988 471.037 202.062C471.111 202.136 471.259 202.21 471.481 202.284L472.812 202.395H475.918Z" fill="#111C1E"/>
<path d="M147.991 13.1351C147.991 20.3894 142.26 30.0231 135.19 30.0231C128.121 30.0231 122.39 20.3894 122.39 13.1351C122.39 5.88079 128.121 0 135.19 0C142.26 0 147.991 5.88079 147.991 13.1351Z" fill="#111C1E"/>
<path d="M180.422 30.5177C177.434 37.0923 168.272 43.338 161.865 40.2722C155.458 37.2064 154.232 25.99 157.219 19.4154C160.207 12.8407 167.823 9.99627 174.23 13.0621C180.637 16.1279 183.41 23.943 180.422 30.5177Z" fill="#111C1E"/>
<path d="M114.432 19.4062C117.419 25.9809 116.193 37.1972 109.786 40.2631C103.378 43.3289 94.2167 37.0831 91.229 30.5085C88.2413 23.9338 91.0133 16.1187 97.4205 13.0529C103.828 9.98709 111.444 12.8316 114.432 19.4062Z" fill="#111C1E"/>
</svg>
